<svg width="80" height="80" viewBox="0 0 80 80" fill="none" xmlns="http://www.w3.org/2000/svg">
<path fill-rule="evenodd" clip-rule="evenodd" d="M40 80C62.0914 80 80 62.0914 80 40C80 17.9086 62.0914 0 40 0C17.9086 0 0 17.9086 0 40C0 62.0914 17.9086 80 40 80ZM58.4844 60.1875C58.6927 58.7292 58.7969 57.4792 58.7969 56.4375C58.7969 52.9479 58.5625 49.4844 58.0938 46.0469C57.625 42.5573 57.0521 39.1198 56.375 35.7344C56.1146 34.3281 55.8021 32.7135 55.4375 30.8906C55.125 29.0677 54.7083 27.2188 54.1875 25.3438C53.7188 23.4167 53.1198 21.5417 52.3906 19.7188C51.6615 17.8438 50.75 16.1771 49.6562 14.7188C48.5625 13.2604 47.2865 12.0885 45.8281 11.2031C44.3698 10.3177 42.651 9.875 40.6719 9.875C38.6406 9.875 36.7917 10.3958 35.125 11.4375C33.4583 12.4792 31.974 13.8333 30.6719 15.5C29.3698 17.1667 28.1979 19.0677 27.1562 21.2031C26.1667 23.2865 25.2812 25.4219 24.5 27.6094C23.7708 29.7448 23.1458 31.8281 22.625 33.8594C22.1042 35.8906 21.6875 37.6615 21.375 39.1719C20.75 42.0365 20.2031 44.9271 19.7344 47.8438C19.2656 50.7083 19.0312 53.625 19.0312 56.5938C19.0312 57.4792 19.0573 58.599 19.1094 59.9531C19.2135 61.2552 19.4479 62.5312 19.8125 63.7812C20.1771 65.0312 20.6979 66.125 21.375 67.0625C22.1042 67.9479 23.0938 68.3906 24.3438 68.3906C25.9583 68.3906 27.3125 67.7917 28.4062 66.5938C29.5521 65.3958 30.4635 63.9896 31.1406 62.375C31.8698 60.7083 32.3906 58.9896 32.7031 57.2188C33.0677 55.4479 33.3021 53.9635 33.4062 52.7656C37.0521 52.2969 40.75 51.75 44.5 51.125C44.5521 52.3229 44.6042 53.9375 44.6562 55.9688C44.7604 58 45.0208 60.0052 45.4375 61.9844C45.8542 63.9115 46.5312 65.5781 47.4688 66.9844C48.4583 68.3906 49.9167 69.0938 51.8438 69.0938C53.3021 69.0938 54.474 68.651 55.3594 67.7656C56.2448 66.8281 56.9479 65.7083 57.4688 64.4062C57.9896 63.0521 58.3281 61.6458 58.4844 60.1875ZM43.5625 34.4062C43.6667 35.8125 43.7188 36.8281 43.7188 37.4531V39.7188C40.6979 40.2396 37.625 40.6302 34.5 40.8906C34.5521 40.474 34.6302 39.7969 34.7344 38.8594C34.8385 37.8698 34.9948 36.776 35.2031 35.5781C35.4115 34.3802 35.6458 33.1302 35.9062 31.8281C36.2188 30.526 36.5573 29.3542 36.9219 28.3125C37.2865 27.2188 37.7031 26.3333 38.1719 25.6562C38.6406 24.9271 39.1354 24.5625 39.6562 24.5625C40.5938 24.5625 41.3229 25.1354 41.8438 26.2812C42.4167 27.375 42.8333 28.651 43.0938 30.1094C43.3542 31.5156 43.5104 32.9479 43.5625 34.4062Z" fill="url(#paint0_radial)"/>
<defs>
<radialGradient id="paint0_radial" cx="0" cy="0" r="1" gradientUnits="userSpaceOnUse" gradientTransform="translate(80.0003 0.000782012) rotate(135) scale(113.137)">
<stop stop-color="#FFAA00"/>
<stop offset="1" stop-color="#FF00FF"/>
</radialGradient>
</defs>
</svg>
